<mxfile host="app.diagrams.net" modified="2023-12-06T03:50:45.295Z" agent="Mozilla/5.0 (Macintosh; Intel Mac OS X 10_15_7) AppleWebKit/605.1.15 (KHTML, like Gecko) Version/16.3 Safari/605.1.15" etag="QqDXkHSq2ORnqYnV5QgM" version="22.1.5" type="github">
  <diagram name="Page-1" id="rvGeT7zia2lHMvUj9c5C">
    <mxGraphModel dx="857" dy="570" grid="1" gridSize="10" guides="1" tooltips="1" connect="1" arrows="1" fold="1" page="1" pageScale="1" pageWidth="850" pageHeight="1100" math="0" shadow="0">
      <root>
        <mxCell id="0" />
        <mxCell id="1" parent="0" />
        <mxCell id="pW38bHKlfas4n67EDEkT-9" style="edgeStyle=orthogonalEdgeStyle;rounded=0;orthogonalLoop=1;jettySize=auto;html=1;exitX=1;exitY=0.5;exitDx=0;exitDy=0;entryX=0;entryY=0.5;entryDx=0;entryDy=0;" parent="1" source="pW38bHKlfas4n67EDEkT-1" target="pW38bHKlfas4n67EDEkT-2" edge="1">
          <mxGeometry relative="1" as="geometry" />
        </mxCell>
        <mxCell id="qui1lyOwTPO95bvUMO4C-3" style="edgeStyle=orthogonalEdgeStyle;orthogonalLoop=1;jettySize=auto;html=1;exitX=0.25;exitY=1;exitDx=0;exitDy=0;entryX=0.25;entryY=0;entryDx=0;entryDy=0;curved=1;strokeColor=#d79b00;fillColor=#ffe6cc;" edge="1" parent="1" source="pW38bHKlfas4n67EDEkT-1" target="qui1lyOwTPO95bvUMO4C-1">
          <mxGeometry relative="1" as="geometry" />
        </mxCell>
        <mxCell id="pW38bHKlfas4n67EDEkT-1" value="Preference differences between interest groups" style="text;html=1;align=center;verticalAlign=middle;whiteSpace=wrap;rounded=0;fillColor=#f5f5f5;fontColor=#333333;strokeColor=#666666;fontSize=14;" parent="1" vertex="1">
          <mxGeometry x="30" y="120" width="160" height="60" as="geometry" />
        </mxCell>
        <mxCell id="pW38bHKlfas4n67EDEkT-6" style="edgeStyle=orthogonalEdgeStyle;rounded=0;orthogonalLoop=1;jettySize=auto;html=1;exitX=0.25;exitY=1;exitDx=0;exitDy=0;entryX=0;entryY=0.5;entryDx=0;entryDy=0;" parent="1" source="pW38bHKlfas4n67EDEkT-2" target="pW38bHKlfas4n67EDEkT-5" edge="1">
          <mxGeometry relative="1" as="geometry">
            <Array as="points">
              <mxPoint x="270" y="180" />
              <mxPoint x="270" y="290" />
            </Array>
          </mxGeometry>
        </mxCell>
        <mxCell id="pW38bHKlfas4n67EDEkT-7" style="edgeStyle=orthogonalEdgeStyle;rounded=0;orthogonalLoop=1;jettySize=auto;html=1;exitX=0.25;exitY=1;exitDx=0;exitDy=0;entryX=0;entryY=0.5;entryDx=0;entryDy=0;" parent="1" source="pW38bHKlfas4n67EDEkT-2" target="pW38bHKlfas4n67EDEkT-8" edge="1">
          <mxGeometry relative="1" as="geometry">
            <mxPoint x="330" y="380" as="targetPoint" />
            <Array as="points">
              <mxPoint x="270" y="180" />
              <mxPoint x="270" y="400" />
            </Array>
          </mxGeometry>
        </mxCell>
        <mxCell id="pW38bHKlfas4n67EDEkT-10" style="edgeStyle=orthogonalEdgeStyle;rounded=0;orthogonalLoop=1;jettySize=auto;html=1;exitX=1;exitY=0.5;exitDx=0;exitDy=0;entryX=0;entryY=0.5;entryDx=0;entryDy=0;" parent="1" source="pW38bHKlfas4n67EDEkT-2" target="pW38bHKlfas4n67EDEkT-3" edge="1">
          <mxGeometry relative="1" as="geometry" />
        </mxCell>
        <mxCell id="pW38bHKlfas4n67EDEkT-2" value="Inequality in political representation&amp;nbsp;" style="text;html=1;align=center;verticalAlign=middle;whiteSpace=wrap;rounded=0;fillColor=#f5f5f5;fontColor=#333333;strokeColor=#666666;fontSize=14;" parent="1" vertex="1">
          <mxGeometry x="265" y="120" width="160" height="60" as="geometry" />
        </mxCell>
        <mxCell id="pW38bHKlfas4n67EDEkT-3" value="Distortion in policy outcomes" style="text;html=1;align=center;verticalAlign=middle;whiteSpace=wrap;rounded=0;fillColor=#f5f5f5;fontColor=#333333;strokeColor=#666666;fontSize=14;" parent="1" vertex="1">
          <mxGeometry x="520" y="120" width="150" height="60" as="geometry" />
        </mxCell>
        <mxCell id="qui1lyOwTPO95bvUMO4C-5" style="edgeStyle=orthogonalEdgeStyle;rounded=0;orthogonalLoop=1;jettySize=auto;html=1;exitX=1;exitY=0.5;exitDx=0;exitDy=0;entryX=0;entryY=0.5;entryDx=0;entryDy=0;strokeColor=#d79b00;fillColor=#ffe6cc;" edge="1" parent="1" source="pW38bHKlfas4n67EDEkT-5" target="qui1lyOwTPO95bvUMO4C-4">
          <mxGeometry relative="1" as="geometry" />
        </mxCell>
        <mxCell id="pW38bHKlfas4n67EDEkT-5" value="Unequal responsiveness of off-cycle elected city officials at the local government&amp;nbsp;" style="text;html=1;align=center;verticalAlign=middle;whiteSpace=wrap;rounded=0;fontSize=14;strokeColor=default;" parent="1" vertex="1">
          <mxGeometry x="310" y="260" width="180" height="60" as="geometry" />
        </mxCell>
        <mxCell id="qui1lyOwTPO95bvUMO4C-7" style="edgeStyle=orthogonalEdgeStyle;rounded=0;orthogonalLoop=1;jettySize=auto;html=1;exitX=1;exitY=0.5;exitDx=0;exitDy=0;entryX=0;entryY=0.5;entryDx=0;entryDy=0;strokeColor=#d79b00;fillColor=#ffe6cc;" edge="1" parent="1" source="pW38bHKlfas4n67EDEkT-8" target="qui1lyOwTPO95bvUMO4C-6">
          <mxGeometry relative="1" as="geometry" />
        </mxCell>
        <mxCell id="pW38bHKlfas4n67EDEkT-8" value="Unrepresentative participants at local public meetings" style="text;html=1;align=center;verticalAlign=middle;whiteSpace=wrap;rounded=0;fontSize=14;fillColor=none;strokeColor=default;" parent="1" vertex="1">
          <mxGeometry x="310" y="370" width="180" height="60" as="geometry" />
        </mxCell>
        <mxCell id="qui1lyOwTPO95bvUMO4C-1" value="Measurement: &lt;b&gt;Section 4.1&lt;/b&gt;&amp;nbsp;&lt;br&gt;&lt;font color=&quot;#aa7942&quot;&gt;Study proposal: &lt;b&gt;Section 7 p.t. 1&lt;/b&gt;&lt;/font&gt;" style="whiteSpace=wrap;html=1;fontSize=14;fillColor=#fff2cc;strokeColor=#d6b656;rounded=0;align=left;" vertex="1" parent="1">
          <mxGeometry x="40" y="210" width="210" height="60" as="geometry" />
        </mxCell>
        <mxCell id="qui1lyOwTPO95bvUMO4C-4" value="Theoretical prediction and empirical evidence: &lt;b&gt;Section 5.1&lt;/b&gt;" style="whiteSpace=wrap;html=1;fontSize=14;fillColor=#fff2cc;strokeColor=#d6b656;rounded=0;align=left;" vertex="1" parent="1">
          <mxGeometry x="527.5" y="260" width="210" height="60" as="geometry" />
        </mxCell>
        <mxCell id="qui1lyOwTPO95bvUMO4C-6" value="Empirical evidence: &lt;b&gt;Section 5.2&lt;/b&gt;&lt;br&gt;&lt;font color=&quot;#aa7942&quot;&gt;Study proposal: &lt;b&gt;Section 7 p.t. 2&lt;/b&gt;&lt;/font&gt;" style="whiteSpace=wrap;html=1;fontSize=14;fillColor=#fff2cc;strokeColor=#d6b656;rounded=0;align=left;" vertex="1" parent="1">
          <mxGeometry x="527.5" y="370" width="205" height="60" as="geometry" />
        </mxCell>
        <mxCell id="qui1lyOwTPO95bvUMO4C-9" style="edgeStyle=orthogonalEdgeStyle;orthogonalLoop=1;jettySize=auto;html=1;exitX=0.25;exitY=1;exitDx=0;exitDy=0;entryX=0;entryY=0.5;entryDx=0;entryDy=0;strokeColor=#d79b00;fillColor=#ffe6cc;curved=1;" edge="1" parent="1" target="qui1lyOwTPO95bvUMO4C-10" source="pW38bHKlfas4n67EDEkT-3">
          <mxGeometry relative="1" as="geometry">
            <mxPoint x="600" y="60" as="sourcePoint" />
          </mxGeometry>
        </mxCell>
        <mxCell id="qui1lyOwTPO95bvUMO4C-10" value="Measurement: &lt;b&gt;Section 4.2&lt;/b&gt;&lt;br&gt;Empirical evidence&lt;b&gt;: Section 5.3&lt;br&gt;&lt;/b&gt;" style="whiteSpace=wrap;html=1;fontSize=14;fillColor=#fff2cc;strokeColor=#d6b656;rounded=0;align=left;" vertex="1" parent="1">
          <mxGeometry x="600" y="190" width="210" height="60" as="geometry" />
        </mxCell>
      </root>
    </mxGraphModel>
  </diagram>
</mxfile>
